<svg width="94" height="73" viewBox="0 0 94 73" fill="none" xmlns="http://www.w3.org/2000/svg">
<path d="M0.164063 16.1C2.0974 15.3 4.0974 14.4 6.16406 13.4C8.2974 12.3333 10.3641 11.2 12.3641 10C14.3641 8.73333 16.2641 7.43333 18.0641 6.1C19.9307 4.7 21.5974 3.23333 23.0641 1.7H33.4641V71H18.5641V21.1C16.5641 22.4333 14.3307 23.6667 11.8641 24.8C9.3974 25.8667 6.9974 26.8 4.66406 27.6L0.164063 16.1ZM93.4 36.2C93.4 47.8667 91.1667 56.8333 86.7 63.1C82.3 69.3 76.2 72.4 68.4 72.4C60.6 72.4 54.4667 69.3 50 63.1C45.6 56.8333 43.4 47.8667 43.4 36.2C43.4 30.4 43.9667 25.2667 45.1 20.8C46.3 16.3333 48 12.5667 50.2 9.5C52.4 6.43333 55.0333 4.1 58.1 2.49999C61.1667 0.899995 64.6 0.0999949 68.4 0.0999949C76.2 0.0999949 82.3 3.23333 86.7 9.5C91.1667 15.7 93.4 24.6 93.4 36.2ZM78.2 36.2C78.2 32.7333 78.0333 29.6 77.7 26.8C77.3667 23.9333 76.8333 21.4667 76.1 19.4C75.3667 17.3333 74.3667 15.7333 73.1 14.6C71.8333 13.4667 70.2667 12.9 68.4 12.9C66.5333 12.9 64.9667 13.4667 63.7 14.6C62.5 15.7333 61.5 17.3333 60.7 19.4C59.9667 21.4667 59.4333 23.9333 59.1 26.8C58.7667 29.6 58.6 32.7333 58.6 36.2C58.6 39.6667 58.7667 42.8333 59.1 45.7C59.4333 48.5667 59.9667 51.0333 60.7 53.1C61.5 55.1667 62.5 56.7667 63.7 57.9C64.9667 59.0333 66.5333 59.6 68.4 59.6C70.2667 59.6 71.8333 59.0333 73.1 57.9C74.3667 56.7667 75.3667 55.1667 76.1 53.1C76.8333 51.0333 77.3667 48.5667 77.7 45.7C78.0333 42.8333 78.2 39.6667 78.2 36.2Z" fill="url(#paint0_linear_175_2295)"/>
<defs>
<linearGradient id="paint0_linear_175_2295" x1="87" y1="99" x2="-0.352237" y2="92.2288" gradientUnits="userSpaceOnUse">
<stop stop-color="#9166F0"/>
<stop offset="1" stop-color="#210C51"/>
</linearGradient>
</defs>
</svg>
