<svg width="149" height="73" viewBox="0 0 149 73" fill="none" xmlns="http://www.w3.org/2000/svg">
<path d="M0.246094 16.1C2.17943 15.3 4.17943 14.4 6.24609 13.4C8.37943 12.3333 10.4461 11.2 12.4461 10C14.4461 8.73333 16.3461 7.43333 18.1461 6.1C20.0128 4.7 21.6794 3.23333 23.1461 1.7H33.5461V71H18.6461V21.1C16.6461 22.4333 14.4128 23.6667 11.9461 24.8C9.47943 25.8667 7.07943 26.8 4.74609 27.6L0.246094 16.1ZM76.082 50.6C76.082 48.6667 75.6487 46.9667 74.782 45.5C73.9154 43.9667 72.4154 42.7 70.282 41.7C68.1487 40.7 65.282 39.9333 61.682 39.4C58.082 38.8667 53.5487 38.6 48.082 38.6C48.8154 32.4 49.4154 26.1 49.882 19.7C50.3487 13.3 50.7154 7.3 50.982 1.7H88.482V14.2H63.482C63.3487 16.6 63.182 18.9333 62.982 21.2C62.8487 23.4 62.682 25.3333 62.482 27C72.2154 27.6667 79.382 29.9667 83.982 33.9C88.6487 37.7667 90.982 43.1667 90.982 50.1C90.982 53.3 90.4154 56.2667 89.282 59C88.1487 61.7333 86.4487 64.1 84.182 66.1C81.9154 68.1 79.0487 69.6667 75.582 70.8C72.182 71.9333 68.182 72.5 63.582 72.5C61.782 72.5 59.882 72.3667 57.882 72.1C55.9487 71.9 54.0487 71.6 52.182 71.2C50.382 70.8667 48.7487 70.5 47.282 70.1C45.8154 69.7 44.682 69.3 43.882 68.9L46.582 56.6C48.2487 57.3333 50.4487 58.0667 53.182 58.8C55.9154 59.4667 59.182 59.8 62.982 59.8C67.582 59.8 70.9154 58.9 72.982 57.1C75.0487 55.2333 76.082 53.0667 76.082 50.6ZM148.318 36.2C148.318 47.8667 146.085 56.8333 141.618 63.1C137.218 69.3 131.118 72.4 123.318 72.4C115.518 72.4 109.385 69.3 104.918 63.1C100.518 56.8333 98.318 47.8667 98.318 36.2C98.318 30.4 98.8846 25.2667 100.018 20.8C101.218 16.3333 102.918 12.5667 105.118 9.5C107.318 6.43333 109.951 4.1 113.018 2.49999C116.085 0.899995 119.518 0.0999949 123.318 0.0999949C131.118 0.0999949 137.218 3.23333 141.618 9.5C146.085 15.7 148.318 24.6 148.318 36.2ZM133.118 36.2C133.118 32.7333 132.951 29.6 132.618 26.8C132.285 23.9333 131.751 21.4667 131.018 19.4C130.285 17.3333 129.285 15.7333 128.018 14.6C126.751 13.4667 125.185 12.9 123.318 12.9C121.451 12.9 119.885 13.4667 118.618 14.6C117.418 15.7333 116.418 17.3333 115.618 19.4C114.885 21.4667 114.351 23.9333 114.018 26.8C113.685 29.6 113.518 32.7333 113.518 36.2C113.518 39.6667 113.685 42.8333 114.018 45.7C114.351 48.5667 114.885 51.0333 115.618 53.1C116.418 55.1667 117.418 56.7667 118.618 57.9C119.885 59.0333 121.451 59.6 123.318 59.6C125.185 59.6 126.751 59.0333 128.018 57.9C129.285 56.7667 130.285 55.1667 131.018 53.1C131.751 51.0333 132.285 48.5667 132.618 45.7C132.951 42.8333 133.118 39.6667 133.118 36.2Z" fill="url(#paint0_linear_175_2298)"/>
<defs>
<linearGradient id="paint0_linear_175_2298" x1="136.712" y1="99" x2="4.22173" y2="83.2986" gradientUnits="userSpaceOnUse">
<stop stop-color="#9166F0"/>
<stop offset="1" stop-color="#210C51"/>
</linearGradient>
</defs>
</svg>
