<svg width="48" height="72" viewBox="0 0 48 72" fill="none" xmlns="http://www.w3.org/2000/svg">
<path d="M33.082 49.6C33.082 47.6667 32.6487 45.9667 31.782 44.5C30.9154 42.9667 29.4154 41.7 27.282 40.7C25.1487 39.7 22.282 38.9333 18.682 38.4C15.082 37.8667 10.5487 37.6 5.08203 37.6C5.81537 31.4 6.41537 25.1 6.88203 18.7C7.3487 12.3 7.71537 6.3 7.98203 0.699998H45.482V13.2H20.482C20.3487 15.6 20.182 17.9333 19.982 20.2C19.8487 22.4 19.682 24.3333 19.482 26C29.2154 26.6667 36.382 28.9667 40.982 32.9C45.6487 36.7667 47.982 42.1667 47.982 49.1C47.982 52.3 47.4154 55.2667 46.282 58C45.1487 60.7333 43.4487 63.1 41.182 65.1C38.9154 67.1 36.0487 68.6667 32.582 69.8C29.182 70.9333 25.182 71.5 20.582 71.5C18.782 71.5 16.882 71.3667 14.882 71.1C12.9487 70.9 11.0487 70.6 9.18203 70.2C7.38203 69.8667 5.7487 69.5 4.28203 69.1C2.81536 68.7 1.68203 68.3 0.882032 67.9L3.58203 55.6C5.2487 56.3333 7.4487 57.0667 10.182 57.8C12.9154 58.4667 16.182 58.8 19.982 58.8C24.582 58.8 27.9154 57.9 29.982 56.1C32.0487 54.2333 33.082 52.0667 33.082 49.6Z" fill="url(#paint0_linear_175_2305)"/>
<defs>
<linearGradient id="paint0_linear_175_2305" x1="48.5192" y1="98" x2="0.442587" y2="95.9575" gradientUnits="userSpaceOnUse">
<stop stop-color="#9166F0"/>
<stop offset="1" stop-color="#210C51"/>
</linearGradient>
</defs>
</svg>
