<svg width="106" height="73" viewBox="0 0 106 73" fill="none" xmlns="http://www.w3.org/2000/svg">
<path d="M26.9 33.8C28.4333 33.8 30.0333 33.6667 31.7 33.4C33.3667 33.0667 34.6 32.6333 35.4 32.1V31.2C35.4 30.9333 35.4 30.6667 35.4 30.4C35.4667 30.1333 35.5 29.9 35.5 29.7C35.4333 27.3 35.2333 25.0667 34.9 23C34.5667 20.8667 34 19.0333 33.2 17.5C32.4 15.9 31.3 14.6667 29.9 13.8C28.5667 12.8667 26.9 12.4 24.9 12.4C23.3 12.4 21.9 12.7333 20.7 13.4C19.5 14.0667 18.5333 14.9333 17.8 16C17.0667 17.0667 16.5 18.2333 16.1 19.5C15.7667 20.7667 15.6 22 15.6 23.2C15.6 26.8 16.4667 29.4667 18.2 31.2C20 32.9333 22.9 33.8 26.9 33.8ZM34.2 43.5C32.8 44.1667 31.2333 44.6667 29.5 45C27.8333 45.2667 26.4 45.4 25.2 45.4C20.8667 45.4 17.1667 44.9 14.1 43.9C11.0333 42.8333 8.5 41.3667 6.5 39.5C4.56667 37.5667 3.13333 35.2667 2.2 32.6C1.26667 29.9333 0.8 27 0.8 23.8C0.8 21.1333 1.23333 18.4 2.1 15.6C3.03333 12.8 4.46667 10.2667 6.4 7.99999C8.33333 5.66666 10.7667 3.76666 13.7 2.3C16.7 0.766663 20.3 -3.8147e-06 24.5 -3.8147e-06C33.1 -3.8147e-06 39.5667 2.66666 43.9 7.99999C48.3 13.2667 50.5 20.8667 50.5 30.8C50.5 37.3333 49.6333 43.1 47.9 48.1C46.2333 53.1 43.6 57.3 40 60.7C36.4667 64.1 31.9333 66.7 26.4 68.5C20.8667 70.2333 14.3 71.1333 6.7 71.2C6.63333 69.0667 6.53333 67 6.4 65C6.26667 63 6.13333 60.9333 6 58.8C9.8 58.7333 13.2333 58.4667 16.3 58C19.3667 57.4667 22.0667 56.6333 24.4 55.5C26.7333 54.3 28.7 52.7333 30.3 50.8C31.9667 48.8667 33.2667 46.4333 34.2 43.5ZM105.236 36.2C105.236 47.8667 103.003 56.8333 98.5359 63.1C94.1359 69.3 88.0359 72.4 80.2359 72.4C72.4359 72.4 66.3026 69.3 61.8359 63.1C57.4359 56.8333 55.2359 47.8667 55.2359 36.2C55.2359 30.4 55.8026 25.2667 56.9359 20.8C58.1359 16.3333 59.8359 12.5667 62.0359 9.5C64.2359 6.43333 66.8693 4.1 69.9359 2.49999C73.0026 0.899995 76.4359 0.0999949 80.2359 0.0999949C88.0359 0.0999949 94.1359 3.23333 98.5359 9.5C103.003 15.7 105.236 24.6 105.236 36.2ZM90.0359 36.2C90.0359 32.7333 89.8693 29.6 89.5359 26.8C89.2026 23.9333 88.6693 21.4667 87.9359 19.4C87.2026 17.3333 86.2026 15.7333 84.9359 14.6C83.6693 13.4667 82.1026 12.9 80.2359 12.9C78.3693 12.9 76.8026 13.4667 75.5359 14.6C74.3359 15.7333 73.3359 17.3333 72.5359 19.4C71.8026 21.4667 71.2693 23.9333 70.9359 26.8C70.6026 29.6 70.4359 32.7333 70.4359 36.2C70.4359 39.6667 70.6026 42.8333 70.9359 45.7C71.2693 48.5667 71.8026 51.0333 72.5359 53.1C73.3359 55.1667 74.3359 56.7667 75.5359 57.9C76.8026 59.0333 78.3693 59.6 80.2359 59.6C82.1026 59.6 83.6693 59.0333 84.9359 57.9C86.2026 56.7667 87.2026 55.1667 87.9359 53.1C88.6693 51.0333 89.2026 48.5667 89.5359 45.7C89.8693 42.8333 90.0359 39.6667 90.0359 36.2Z" fill="url(#paint0_linear_175_2301)"/>
<defs>
<linearGradient id="paint0_linear_175_2301" x1="98.3269" y1="99" x2="5.17263" y2="91.293" gradientUnits="userSpaceOnUse">
<stop stop-color="#9166F0"/>
<stop offset="1" stop-color="#210C51"/>
</linearGradient>
</defs>
</svg>
