<svg width="163" height="175" viewBox="0 0 163 175" fill="none" xmlns="http://www.w3.org/2000/svg">
<path d="M48.9 64.8C50.4333 64.8 52.0333 64.6667 53.7 64.4C55.3667 64.0667 56.6 63.6333 57.4 63.1V62.2C57.4 61.9333 57.4 61.6667 57.4 61.4C57.4667 61.1333 57.5 60.9 57.5 60.7C57.4333 58.3 57.2333 56.0667 56.9 54C56.5667 51.8667 56 50.0333 55.2 48.5C54.4 46.9 53.3 45.6667 51.9 44.8C50.5667 43.8667 48.9 43.4 46.9 43.4C45.3 43.4 43.9 43.7333 42.7 44.4C41.5 45.0667 40.5333 45.9333 39.8 47C39.0667 48.0667 38.5 49.2333 38.1 50.5C37.7667 51.7667 37.6 53 37.6 54.2C37.6 57.8 38.4667 60.4667 40.2 62.2C42 63.9333 44.9 64.8 48.9 64.8ZM56.2 74.5C54.8 75.1667 53.2333 75.6667 51.5 76C49.8333 76.2667 48.4 76.4 47.2 76.4C42.8667 76.4 39.1667 75.9 36.1 74.9C33.0333 73.8333 30.5 72.3667 28.5 70.5C26.5667 68.5667 25.1333 66.2667 24.2 63.6C23.2667 60.9333 22.8 58 22.8 54.8C22.8 52.1333 23.2333 49.4 24.1 46.6C25.0333 43.8 26.4667 41.2667 28.4 39C30.3333 36.6667 32.7667 34.7667 35.7 33.3C38.7 31.7667 42.3 31 46.5 31C55.1 31 61.5667 33.6667 65.9 39C70.3 44.2667 72.5 51.8667 72.5 61.8C72.5 68.3333 71.6333 74.1 69.9 79.1C68.2333 84.1 65.6 88.3 62 91.7C58.4667 95.1 53.9333 97.7 48.4 99.5C42.8667 101.233 36.3 102.133 28.7 102.2C28.6333 100.067 28.5333 98 28.4 96C28.2667 94 28.1333 91.9333 28 89.8C31.8 89.7333 35.2333 89.4667 38.3 89C41.3667 88.4667 44.0667 87.6333 46.4 86.5C48.7333 85.3 50.7 83.7333 52.3 81.8C53.9667 79.8667 55.2667 77.4333 56.2 74.5ZM127.236 67.2C127.236 78.8667 125.003 87.8333 120.536 94.1C116.136 100.3 110.036 103.4 102.236 103.4C94.4359 103.4 88.3026 100.3 83.8359 94.1C79.4359 87.8333 77.2359 78.8667 77.2359 67.2C77.2359 61.4 77.8026 56.2667 78.9359 51.8C80.1359 47.3333 81.8359 43.5667 84.0359 40.5C86.2359 37.4333 88.8693 35.1 91.9359 33.5C95.0026 31.9 98.4359 31.1 102.236 31.1C110.036 31.1 116.136 34.2333 120.536 40.5C125.003 46.7 127.236 55.6 127.236 67.2ZM112.036 67.2C112.036 63.7333 111.869 60.6 111.536 57.8C111.203 54.9333 110.669 52.4667 109.936 50.4C109.203 48.3333 108.203 46.7333 106.936 45.6C105.669 44.4667 104.103 43.9 102.236 43.9C100.369 43.9 98.8026 44.4667 97.5359 45.6C96.3359 46.7333 95.3359 48.3333 94.5359 50.4C93.8026 52.4667 93.2693 54.9333 92.9359 57.8C92.6026 60.6 92.4359 63.7333 92.4359 67.2C92.4359 70.6667 92.6026 73.8333 92.9359 76.7C93.2693 79.5667 93.8026 82.0333 94.5359 84.1C95.3359 86.1667 96.3359 87.7667 97.5359 88.9C98.8026 90.0333 100.369 90.6 102.236 90.6C104.103 90.6 105.669 90.0333 106.936 88.9C108.203 87.7667 109.203 86.1667 109.936 84.1C110.669 82.0333 111.203 79.5667 111.536 76.7C111.869 73.8333 112.036 70.6667 112.036 67.2Z" fill="url(#paint0_linear_175_2300)"/>
<path d="M142.67 37.55C142.67 39.43 142.19 40.87 141.23 41.87C140.27 42.87 138.98 43.37 137.36 43.37C135.74 43.37 134.45 42.87 133.49 41.87C132.53 40.87 132.05 39.43 132.05 37.55C132.05 35.67 132.53 34.23 133.49 33.23C134.45 32.23 135.74 31.73 137.36 31.73C138.98 31.73 140.27 32.23 141.23 33.23C142.19 34.23 142.67 35.67 142.67 37.55ZM139.28 37.55C139.28 36.53 139.1 35.79 138.74 35.33C138.38 34.87 137.92 34.64 137.36 34.64C136.78 34.64 136.31 34.87 135.95 35.33C135.61 35.79 135.44 36.53 135.44 37.55C135.44 38.57 135.61 39.32 135.95 39.8C136.31 40.26 136.78 40.49 137.36 40.49C137.92 40.49 138.38 40.26 138.74 39.8C139.1 39.32 139.28 38.57 139.28 37.55ZM148.52 32.21H152.69L140.96 53H136.79L148.52 32.21ZM157.49 47.66C157.49 49.54 157.01 50.98 156.05 51.98C155.09 52.98 153.8 53.48 152.18 53.48C150.56 53.48 149.27 52.98 148.31 51.98C147.35 50.98 146.87 49.54 146.87 47.66C146.87 45.78 147.35 44.34 148.31 43.34C149.27 42.34 150.56 41.84 152.18 41.84C153.8 41.84 155.09 42.34 156.05 43.34C157.01 44.34 157.49 45.78 157.49 47.66ZM154.1 47.66C154.1 46.64 153.92 45.9 153.56 45.44C153.2 44.98 152.74 44.75 152.18 44.75C151.6 44.75 151.13 44.98 150.77 45.44C150.43 45.9 150.26 46.64 150.26 47.66C150.26 48.68 150.43 49.43 150.77 49.91C151.13 50.37 151.6 50.6 152.18 50.6C152.74 50.6 153.2 50.37 153.56 49.91C153.92 49.43 154.1 48.68 154.1 47.66Z" fill="url(#paint1_linear_175_2300)"/>
<path d="M34.2041 135H32.9021V131.78H29.5421V135H28.2401V127.72H29.5421V130.688H32.9021V127.72H34.2041V135ZM38.9072 134.062C39.2152 134.062 39.4859 134.057 39.7192 134.048C39.9619 134.029 40.1626 134.001 40.3212 133.964V131.794C40.2279 131.747 40.0739 131.71 39.8592 131.682C39.6539 131.645 39.4019 131.626 39.1032 131.626C38.9072 131.626 38.6972 131.64 38.4732 131.668C38.2586 131.696 38.0579 131.757 37.8712 131.85C37.6939 131.934 37.5446 132.055 37.4232 132.214C37.3019 132.363 37.2412 132.564 37.2412 132.816C37.2412 133.283 37.3906 133.609 37.6892 133.796C37.9879 133.973 38.3939 134.062 38.9072 134.062ZM38.7952 127.538C39.3179 127.538 39.7566 127.608 40.1112 127.748C40.4752 127.879 40.7646 128.07 40.9792 128.322C41.2032 128.565 41.3619 128.859 41.4552 129.204C41.5486 129.54 41.5952 129.913 41.5952 130.324V134.874C41.4832 134.893 41.3246 134.921 41.1192 134.958C40.9232 134.986 40.6992 135.014 40.4472 135.042C40.1952 135.07 39.9199 135.093 39.6212 135.112C39.3319 135.14 39.0426 135.154 38.7532 135.154C38.3426 135.154 37.9646 135.112 37.6192 135.028C37.2739 134.944 36.9752 134.813 36.7232 134.636C36.4712 134.449 36.2752 134.207 36.1352 133.908C35.9952 133.609 35.9252 133.25 35.9252 132.83C35.9252 132.429 36.0046 132.083 36.1632 131.794C36.3312 131.505 36.5552 131.271 36.8352 131.094C37.1152 130.917 37.4419 130.786 37.8152 130.702C38.1886 130.618 38.5806 130.576 38.9912 130.576C39.1219 130.576 39.2572 130.585 39.3972 130.604C39.5372 130.613 39.6679 130.632 39.7892 130.66C39.9199 130.679 40.0319 130.697 40.1252 130.716C40.2186 130.735 40.2839 130.749 40.3212 130.758V130.394C40.3212 130.179 40.2979 129.969 40.2512 129.764C40.2046 129.549 40.1206 129.363 39.9992 129.204C39.8779 129.036 39.7099 128.905 39.4952 128.812C39.2899 128.709 39.0192 128.658 38.6832 128.658C38.2539 128.658 37.8759 128.691 37.5492 128.756C37.2319 128.812 36.9939 128.873 36.8352 128.938L36.6812 127.86C36.8492 127.785 37.1292 127.715 37.5212 127.65C37.9132 127.575 38.3379 127.538 38.7952 127.538ZM43.7577 135V127.72H45.0597V133.922H47.7477V127.72H49.0497V133.922H51.7377V127.72H53.0397V135H43.7577ZM61.4011 127.72V135H60.1411V129.456C59.8611 129.811 59.5531 130.226 59.2171 130.702C58.8811 131.178 58.5451 131.673 58.2091 132.186C57.8731 132.69 57.5511 133.189 57.2431 133.684C56.9351 134.179 56.6691 134.617 56.4451 135H55.2831V127.72H56.5431V132.956C56.7858 132.555 57.0611 132.116 57.3691 131.64C57.6771 131.155 57.9944 130.679 58.3211 130.212C58.6571 129.736 58.9884 129.283 59.3151 128.854C59.6511 128.415 59.9638 128.037 60.2531 127.72H61.4011ZM67.9906 135C67.8879 134.795 67.7619 134.566 67.6126 134.314C67.4633 134.062 67.2999 133.805 67.1226 133.544C66.9453 133.273 66.7633 133.007 66.5766 132.746C66.3899 132.485 66.2079 132.237 66.0306 132.004C65.8533 132.237 65.6713 132.489 65.4846 132.76C65.2979 133.021 65.1159 133.287 64.9386 133.558C64.7706 133.819 64.6119 134.076 64.4626 134.328C64.3133 134.58 64.1873 134.804 64.0846 135H62.7406C63.0673 134.365 63.4546 133.721 63.9026 133.068C64.3599 132.405 64.8126 131.775 65.2606 131.178L62.8526 127.72H64.3226L66.0586 130.268L67.8086 127.72H69.1946L66.8426 131.094C67.2906 131.701 67.7479 132.345 68.2146 133.026C68.6906 133.698 69.0919 134.356 69.4186 135H67.9906ZM76.6872 131.038C76.9766 131.243 77.2892 131.505 77.6252 131.822C77.9612 132.13 78.2879 132.466 78.6052 132.83C78.9319 133.194 79.2352 133.567 79.5152 133.95C79.7952 134.323 80.0332 134.673 80.2292 135H78.6892C78.4839 134.683 78.2412 134.361 77.9612 134.034C77.6906 133.698 77.4059 133.376 77.1072 133.068C76.8086 132.76 76.5052 132.475 76.1972 132.214C75.8892 131.953 75.5999 131.733 75.3292 131.556V135H74.0272V127.72H75.3292V130.842C75.5532 130.627 75.8099 130.38 76.0992 130.1C76.3886 129.811 76.6779 129.521 76.9672 129.232C77.2659 128.933 77.5412 128.653 77.7932 128.392C78.0452 128.121 78.2506 127.897 78.4092 127.72H79.9212C79.7159 127.944 79.4732 128.201 79.1932 128.49C78.9226 128.77 78.6379 129.059 78.3392 129.358C78.0499 129.657 77.7606 129.955 77.4712 130.254C77.1819 130.543 76.9206 130.805 76.6872 131.038ZM84.3815 128.812C84.3815 129.12 84.3722 129.451 84.3535 129.806C84.3442 130.151 84.3209 130.501 84.2835 130.856C84.2462 131.201 84.1949 131.547 84.1295 131.892C84.0642 132.228 83.9802 132.545 83.8775 132.844C83.7749 133.143 83.6442 133.423 83.4855 133.684C83.3362 133.945 83.1495 134.179 82.9255 134.384C82.7015 134.58 82.4402 134.748 82.1415 134.888C81.8429 135.019 81.4929 135.103 81.0915 135.14L80.9095 134.048C81.3669 133.955 81.7262 133.782 81.9875 133.53C82.2582 133.278 82.4729 132.97 82.6315 132.606C82.7715 132.289 82.8742 131.929 82.9395 131.528C83.0049 131.127 83.0515 130.711 83.0795 130.282C83.1075 129.843 83.1215 129.405 83.1215 128.966C83.1309 128.527 83.1355 128.112 83.1355 127.72H87.9795V135H86.6775V128.812H84.3815ZM96.3327 127.72V135H95.0727V129.456C94.7927 129.811 94.4847 130.226 94.1487 130.702C93.8127 131.178 93.4767 131.673 93.1407 132.186C92.8047 132.69 92.4827 133.189 92.1747 133.684C91.8667 134.179 91.6007 134.617 91.3767 135H90.2147V127.72H91.4747V132.956C91.7174 132.555 91.9927 132.116 92.3007 131.64C92.6087 131.155 92.9261 130.679 93.2527 130.212C93.5887 129.736 93.9201 129.283 94.2467 128.854C94.5827 128.415 94.8954 128.037 95.1847 127.72H96.3327ZM98.1622 131.374C98.1622 130.73 98.2556 130.17 98.4422 129.694C98.6289 129.209 98.8762 128.807 99.1842 128.49C99.4922 128.173 99.8469 127.935 100.248 127.776C100.65 127.617 101.06 127.538 101.48 127.538C102.46 127.538 103.212 127.846 103.734 128.462C104.257 129.069 104.518 129.997 104.518 131.248C104.518 131.304 104.518 131.379 104.518 131.472C104.518 131.556 104.514 131.635 104.504 131.71H99.5202C99.5762 132.466 99.7956 133.04 100.178 133.432C100.561 133.824 101.158 134.02 101.97 134.02C102.428 134.02 102.81 133.983 103.118 133.908C103.436 133.824 103.674 133.745 103.832 133.67L104.014 134.762C103.856 134.846 103.576 134.935 103.174 135.028C102.782 135.121 102.334 135.168 101.83 135.168C101.196 135.168 100.645 135.075 100.178 134.888C99.7209 134.692 99.3429 134.426 99.0442 134.09C98.7456 133.754 98.5216 133.357 98.3722 132.9C98.2322 132.433 98.1622 131.925 98.1622 131.374ZM103.16 130.66C103.17 130.072 103.02 129.591 102.712 129.218C102.414 128.835 101.998 128.644 101.466 128.644C101.168 128.644 100.902 128.705 100.668 128.826C100.444 128.938 100.253 129.087 100.094 129.274C99.9356 129.461 99.8096 129.675 99.7162 129.918C99.6322 130.161 99.5762 130.408 99.5482 130.66H103.16ZM112.353 135H111.051V131.78H107.691V135H106.389V127.72H107.691V130.688H111.051V127.72H112.353V135ZM119.73 127.72V128.812H117.364V135H116.062V128.812H113.696V127.72H119.73ZM127.498 131.36C127.498 131.939 127.414 132.461 127.246 132.928C127.078 133.395 126.84 133.796 126.532 134.132C126.233 134.468 125.874 134.729 125.454 134.916C125.034 135.093 124.577 135.182 124.082 135.182C123.587 135.182 123.13 135.093 122.71 134.916C122.29 134.729 121.926 134.468 121.618 134.132C121.319 133.796 121.086 133.395 120.918 132.928C120.75 132.461 120.666 131.939 120.666 131.36C120.666 130.791 120.75 130.273 120.918 129.806C121.086 129.33 121.319 128.924 121.618 128.588C121.926 128.252 122.29 127.995 122.71 127.818C123.13 127.631 123.587 127.538 124.082 127.538C124.577 127.538 125.034 127.631 125.454 127.818C125.874 127.995 126.233 128.252 126.532 128.588C126.84 128.924 127.078 129.33 127.246 129.806C127.414 130.273 127.498 130.791 127.498 131.36ZM126.14 131.36C126.14 130.539 125.953 129.89 125.58 129.414C125.216 128.929 124.717 128.686 124.082 128.686C123.447 128.686 122.943 128.929 122.57 129.414C122.206 129.89 122.024 130.539 122.024 131.36C122.024 132.181 122.206 132.835 122.57 133.32C122.943 133.796 123.447 134.034 124.082 134.034C124.717 134.034 125.216 133.796 125.58 133.32C125.953 132.835 126.14 132.181 126.14 131.36ZM130.604 134.02C130.66 134.029 130.739 134.039 130.842 134.048C130.945 134.057 131.061 134.067 131.192 134.076C131.323 134.076 131.458 134.081 131.598 134.09C131.747 134.09 131.887 134.09 132.018 134.09C132.289 134.09 132.545 134.071 132.788 134.034C133.04 133.997 133.255 133.931 133.432 133.838C133.619 133.745 133.763 133.623 133.866 133.474C133.978 133.315 134.034 133.115 134.034 132.872C134.034 132.639 133.983 132.447 133.88 132.298C133.787 132.139 133.656 132.013 133.488 131.92C133.32 131.827 133.119 131.761 132.886 131.724C132.662 131.687 132.419 131.668 132.158 131.668H130.604V134.02ZM131.99 130.702C132.242 130.702 132.471 130.688 132.676 130.66C132.891 130.623 133.073 130.562 133.222 130.478C133.381 130.394 133.502 130.282 133.586 130.142C133.679 130.002 133.726 129.825 133.726 129.61C133.726 129.386 133.67 129.209 133.558 129.078C133.446 128.947 133.297 128.849 133.11 128.784C132.933 128.709 132.727 128.663 132.494 128.644C132.27 128.616 132.041 128.602 131.808 128.602C131.593 128.602 131.374 128.607 131.15 128.616C130.935 128.625 130.753 128.635 130.604 128.644V130.702H131.99ZM131.962 135.126C131.411 135.126 130.903 135.098 130.436 135.042C129.969 134.995 129.601 134.939 129.33 134.874V127.79C129.601 127.725 129.969 127.669 130.436 127.622C130.903 127.566 131.411 127.538 131.962 127.538C132.345 127.538 132.718 127.571 133.082 127.636C133.446 127.701 133.768 127.813 134.048 127.972C134.328 128.121 134.552 128.331 134.72 128.602C134.897 128.863 134.986 129.19 134.986 129.582C134.986 129.937 134.897 130.24 134.72 130.492C134.543 130.744 134.305 130.94 134.006 131.08C134.407 131.22 134.725 131.43 134.958 131.71C135.201 131.981 135.322 132.363 135.322 132.858C135.322 133.297 135.233 133.661 135.056 133.95C134.888 134.239 134.65 134.473 134.342 134.65C134.043 134.827 133.689 134.949 133.278 135.014C132.867 135.089 132.429 135.126 131.962 135.126ZM15.4847 153H14.1827V146.812H10.9347V153H9.6327V145.72H15.4847V153ZM24.1524 149.36C24.1524 149.939 24.0684 150.461 23.9004 150.928C23.7324 151.395 23.4944 151.796 23.1864 152.132C22.8878 152.468 22.5284 152.729 22.1084 152.916C21.6884 153.093 21.2311 153.182 20.7364 153.182C20.2418 153.182 19.7844 153.093 19.3644 152.916C18.9444 152.729 18.5804 152.468 18.2724 152.132C17.9738 151.796 17.7404 151.395 17.5724 150.928C17.4044 150.461 17.3204 149.939 17.3204 149.36C17.3204 148.791 17.4044 148.273 17.5724 147.806C17.7404 147.33 17.9738 146.924 18.2724 146.588C18.5804 146.252 18.9444 145.995 19.3644 145.818C19.7844 145.631 20.2418 145.538 20.7364 145.538C21.2311 145.538 21.6884 145.631 22.1084 145.818C22.5284 145.995 22.8878 146.252 23.1864 146.588C23.4944 146.924 23.7324 147.33 23.9004 147.806C24.0684 148.273 24.1524 148.791 24.1524 149.36ZM22.7944 149.36C22.7944 148.539 22.6078 147.89 22.2344 147.414C21.8704 146.929 21.3711 146.686 20.7364 146.686C20.1018 146.686 19.5978 146.929 19.2244 147.414C18.8604 147.89 18.6784 148.539 18.6784 149.36C18.6784 150.181 18.8604 150.835 19.2244 151.32C19.5978 151.796 20.1018 152.034 20.7364 152.034C21.3711 152.034 21.8704 151.796 22.2344 151.32C22.6078 150.835 22.7944 150.181 22.7944 149.36ZM27.2583 152.02C27.3143 152.029 27.3936 152.039 27.4963 152.048C27.5989 152.057 27.7156 152.067 27.8463 152.076C27.9769 152.076 28.1123 152.081 28.2523 152.09C28.4016 152.09 28.5416 152.09 28.6723 152.09C28.9429 152.09 29.1996 152.071 29.4423 152.034C29.6943 151.997 29.9089 151.931 30.0863 151.838C30.2729 151.745 30.4176 151.623 30.5203 151.474C30.6323 151.315 30.6883 151.115 30.6883 150.872C30.6883 150.639 30.6369 150.447 30.5343 150.298C30.4409 150.139 30.3103 150.013 30.1423 149.92C29.9743 149.827 29.7736 149.761 29.5403 149.724C29.3163 149.687 29.0736 149.668 28.8123 149.668H27.2583V152.02ZM28.6443 148.702C28.8963 148.702 29.1249 148.688 29.3303 148.66C29.5449 148.623 29.7269 148.562 29.8763 148.478C30.0349 148.394 30.1563 148.282 30.2403 148.142C30.3336 148.002 30.3803 147.825 30.3803 147.61C30.3803 147.386 30.3243 147.209 30.2123 147.078C30.1003 146.947 29.9509 146.849 29.7643 146.784C29.5869 146.709 29.3816 146.663 29.1483 146.644C28.9243 146.616 28.6956 146.602 28.4623 146.602C28.2476 146.602 28.0283 146.607 27.8043 146.616C27.5896 146.625 27.4076 146.635 27.2583 146.644V148.702H28.6443ZM28.6163 153.126C28.0656 153.126 27.5569 153.098 27.0903 153.042C26.6236 152.995 26.2549 152.939 25.9843 152.874V145.79C26.2549 145.725 26.6236 145.669 27.0903 145.622C27.5569 145.566 28.0656 145.538 28.6163 145.538C28.9989 145.538 29.3723 145.571 29.7363 145.636C30.1003 145.701 30.4223 145.813 30.7023 145.972C30.9823 146.121 31.2063 146.331 31.3743 146.602C31.5516 146.863 31.6403 147.19 31.6403 147.582C31.6403 147.937 31.5516 148.24 31.3743 148.492C31.1969 148.744 30.9589 148.94 30.6603 149.08C31.0616 149.22 31.3789 149.43 31.6123 149.71C31.8549 149.981 31.9763 150.363 31.9763 150.858C31.9763 151.297 31.8876 151.661 31.7103 151.95C31.5423 152.239 31.3043 152.473 30.9963 152.65C30.6976 152.827 30.3429 152.949 29.9323 153.014C29.5216 153.089 29.0829 153.126 28.6163 153.126ZM38.7922 145.72V146.812H36.4262V153H35.1242V146.812H32.7582V145.72H38.7922ZM46.5606 149.36C46.5606 149.939 46.4766 150.461 46.3086 150.928C46.1406 151.395 45.9026 151.796 45.5946 152.132C45.296 152.468 44.9366 152.729 44.5166 152.916C44.0966 153.093 43.6393 153.182 43.1446 153.182C42.65 153.182 42.1926 153.093 41.7726 152.916C41.3526 152.729 40.9886 152.468 40.6806 152.132C40.382 151.796 40.1486 151.395 39.9806 150.928C39.8126 150.461 39.7286 149.939 39.7286 149.36C39.7286 148.791 39.8126 148.273 39.9806 147.806C40.1486 147.33 40.382 146.924 40.6806 146.588C40.9886 146.252 41.3526 145.995 41.7726 145.818C42.1926 145.631 42.65 145.538 43.1446 145.538C43.6393 145.538 44.0966 145.631 44.5166 145.818C44.9366 145.995 45.296 146.252 45.5946 146.588C45.9026 146.924 46.1406 147.33 46.3086 147.806C46.4766 148.273 46.5606 148.791 46.5606 149.36ZM45.2026 149.36C45.2026 148.539 45.016 147.89 44.6426 147.414C44.2786 146.929 43.7793 146.686 43.1446 146.686C42.51 146.686 42.006 146.929 41.6326 147.414C41.2686 147.89 41.0866 148.539 41.0866 149.36C41.0866 150.181 41.2686 150.835 41.6326 151.32C42.006 151.796 42.51 152.034 43.1446 152.034C43.7793 152.034 44.2786 151.796 44.6426 151.32C45.016 150.835 45.2026 150.181 45.2026 149.36ZM53.4465 149.374C53.4465 148.525 53.2365 147.871 52.8165 147.414C52.3965 146.957 51.8365 146.728 51.1365 146.728C50.7445 146.728 50.4365 146.742 50.2125 146.77C49.9978 146.798 49.8251 146.831 49.6945 146.868V151.46C49.8531 151.591 50.0818 151.717 50.3805 151.838C50.6791 151.959 51.0058 152.02 51.3605 152.02C51.7338 152.02 52.0511 151.955 52.3125 151.824C52.5831 151.684 52.8025 151.497 52.9705 151.264C53.1385 151.021 53.2598 150.741 53.3345 150.424C53.4091 150.097 53.4465 149.747 53.4465 149.374ZM54.8045 149.374C54.8045 149.925 54.7298 150.433 54.5805 150.9C54.4405 151.367 54.2305 151.768 53.9505 152.104C53.6705 152.44 53.3251 152.701 52.9145 152.888C52.5131 153.075 52.0511 153.168 51.5285 153.168C51.1085 153.168 50.7351 153.112 50.4085 153C50.0911 152.888 49.8531 152.781 49.6945 152.678V155.59H48.3925V145.944C48.7005 145.869 49.0831 145.79 49.5405 145.706C50.0071 145.613 50.5438 145.566 51.1505 145.566C51.7105 145.566 52.2145 145.655 52.6625 145.832C53.1105 146.009 53.4931 146.261 53.8105 146.588C54.1278 146.915 54.3705 147.316 54.5385 147.792C54.7158 148.259 54.8045 148.786 54.8045 149.374ZM62.6006 153H61.2986V149.78H57.9386V153H56.6366V145.72H57.9386V148.688H61.2986V145.72H62.6006V153ZM71.2657 149.36C71.2657 149.939 71.1817 150.461 71.0137 150.928C70.8457 151.395 70.6077 151.796 70.2997 152.132C70.0011 152.468 69.6417 152.729 69.2217 152.916C68.8017 153.093 68.3444 153.182 67.8497 153.182C67.3551 153.182 66.8977 153.093 66.4777 152.916C66.0577 152.729 65.6937 152.468 65.3857 152.132C65.0871 151.796 64.8537 151.395 64.6857 150.928C64.5177 150.461 64.4337 149.939 64.4337 149.36C64.4337 148.791 64.5177 148.273 64.6857 147.806C64.8537 147.33 65.0871 146.924 65.3857 146.588C65.6937 146.252 66.0577 145.995 66.4777 145.818C66.8977 145.631 67.3551 145.538 67.8497 145.538C68.3444 145.538 68.8017 145.631 69.2217 145.818C69.6417 145.995 70.0011 146.252 70.2997 146.588C70.6077 146.924 70.8457 147.33 71.0137 147.806C71.1817 148.273 71.2657 148.791 71.2657 149.36ZM69.9077 149.36C69.9077 148.539 69.7211 147.89 69.3477 147.414C68.9837 146.929 68.4844 146.686 67.8497 146.686C67.2151 146.686 66.7111 146.929 66.3377 147.414C65.9737 147.89 65.7917 148.539 65.7917 149.36C65.7917 150.181 65.9737 150.835 66.3377 151.32C66.7111 151.796 67.2151 152.034 67.8497 152.034C68.4844 152.034 68.9837 151.796 69.3477 151.32C69.7211 150.835 69.9077 150.181 69.9077 149.36ZM78.1858 145.538C78.6058 145.538 78.9978 145.58 79.3618 145.664C79.7258 145.748 80.0384 145.874 80.2998 146.042C80.5611 146.21 80.7664 146.42 80.9158 146.672C81.0651 146.924 81.1398 147.218 81.1398 147.554C81.1398 147.769 81.1024 147.965 81.0278 148.142C80.9531 148.319 80.8598 148.478 80.7478 148.618C80.6358 148.758 80.5098 148.879 80.3698 148.982C80.2391 149.075 80.1131 149.141 79.9918 149.178C80.4211 149.309 80.7571 149.542 80.9998 149.878C81.2518 150.205 81.3778 150.62 81.3778 151.124C81.3778 151.815 81.0978 152.328 80.5378 152.664C79.9778 153 79.2171 153.168 78.2558 153.168C77.6678 153.168 77.1591 153.121 76.7298 153.028C76.3098 152.935 76.0111 152.846 75.8338 152.762L76.0578 151.656C76.2071 151.712 76.4731 151.791 76.8558 151.894C77.2478 151.987 77.7144 152.034 78.2558 152.034C78.8438 152.034 79.2918 151.945 79.5998 151.768C79.9078 151.581 80.0618 151.306 80.0618 150.942C80.0618 150.681 80.0011 150.471 79.8798 150.312C79.7678 150.144 79.6231 150.018 79.4458 149.934C79.2684 149.85 79.0771 149.794 78.8718 149.766C78.6664 149.738 78.4751 149.724 78.2978 149.724H77.0798V148.688H78.2558C78.4238 148.688 78.5964 148.679 78.7738 148.66C78.9604 148.632 79.1284 148.581 79.2778 148.506C79.4364 148.431 79.5671 148.329 79.6698 148.198C79.7724 148.058 79.8238 147.876 79.8238 147.652C79.8238 147.475 79.7771 147.325 79.6838 147.204C79.5998 147.073 79.4831 146.966 79.3338 146.882C79.1844 146.798 79.0071 146.737 78.8018 146.7C78.6058 146.653 78.4004 146.63 78.1858 146.63C78.0178 146.63 77.8358 146.644 77.6398 146.672C77.4438 146.7 77.2524 146.737 77.0658 146.784C76.8791 146.821 76.7111 146.863 76.5618 146.91C76.4124 146.957 76.3051 146.999 76.2398 147.036L76.0018 145.916C76.0764 145.888 76.1931 145.851 76.3518 145.804C76.5104 145.757 76.6878 145.715 76.8838 145.678C77.0891 145.641 77.3038 145.608 77.5278 145.58C77.7518 145.552 77.9711 145.538 78.1858 145.538ZM85.6514 152.062C85.9594 152.062 86.23 152.057 86.4634 152.048C86.706 152.029 86.9067 152.001 87.0654 151.964V149.794C86.972 149.747 86.818 149.71 86.6034 149.682C86.398 149.645 86.146 149.626 85.8474 149.626C85.6514 149.626 85.4414 149.64 85.2174 149.668C85.0027 149.696 84.802 149.757 84.6154 149.85C84.438 149.934 84.2887 150.055 84.1674 150.214C84.046 150.363 83.9854 150.564 83.9854 150.816C83.9854 151.283 84.1347 151.609 84.4334 151.796C84.732 151.973 85.138 152.062 85.6514 152.062ZM85.5394 145.538C86.062 145.538 86.5007 145.608 86.8554 145.748C87.2194 145.879 87.5087 146.07 87.7234 146.322C87.9474 146.565 88.106 146.859 88.1994 147.204C88.2927 147.54 88.3394 147.913 88.3394 148.324V152.874C88.2274 152.893 88.0687 152.921 87.8634 152.958C87.6674 152.986 87.4434 153.014 87.1914 153.042C86.9394 153.07 86.664 153.093 86.3654 153.112C86.076 153.14 85.7867 153.154 85.4974 153.154C85.0867 153.154 84.7087 153.112 84.3634 153.028C84.018 152.944 83.7194 152.813 83.4674 152.636C83.2154 152.449 83.0194 152.207 82.8794 151.908C82.7394 151.609 82.6694 151.25 82.6694 150.83C82.6694 150.429 82.7487 150.083 82.9074 149.794C83.0754 149.505 83.2994 149.271 83.5794 149.094C83.8594 148.917 84.186 148.786 84.5594 148.702C84.9327 148.618 85.3247 148.576 85.7354 148.576C85.866 148.576 86.0014 148.585 86.1414 148.604C86.2814 148.613 86.412 148.632 86.5334 148.66C86.664 148.679 86.776 148.697 86.8694 148.716C86.9627 148.735 87.028 148.749 87.0654 148.758V148.394C87.0654 148.179 87.042 147.969 86.9954 147.764C86.9487 147.549 86.8647 147.363 86.7434 147.204C86.622 147.036 86.454 146.905 86.2394 146.812C86.034 146.709 85.7634 146.658 85.4274 146.658C84.998 146.658 84.62 146.691 84.2934 146.756C83.976 146.812 83.738 146.873 83.5794 146.938L83.4254 145.86C83.5934 145.785 83.8734 145.715 84.2654 145.65C84.6574 145.575 85.082 145.538 85.5394 145.538ZM93.1618 149.038C93.4512 149.243 93.7638 149.505 94.0998 149.822C94.4358 150.13 94.7625 150.466 95.0798 150.83C95.4065 151.194 95.7098 151.567 95.9898 151.95C96.2698 152.323 96.5078 152.673 96.7038 153H95.1638C94.9585 152.683 94.7158 152.361 94.4358 152.034C94.1652 151.698 93.8805 151.376 93.5818 151.068C93.2832 150.76 92.9798 150.475 92.6718 150.214C92.3638 149.953 92.0745 149.733 91.8038 149.556V153H90.5018V145.72H91.8038V148.842C92.0278 148.627 92.2845 148.38 92.5738 148.1C92.8632 147.811 93.1525 147.521 93.4418 147.232C93.7405 146.933 94.0158 146.653 94.2678 146.392C94.5198 146.121 94.7252 145.897 94.8838 145.72H96.3958C96.1905 145.944 95.9478 146.201 95.6678 146.49C95.3972 146.77 95.1125 147.059 94.8138 147.358C94.5245 147.657 94.2352 147.955 93.9458 148.254C93.6565 148.543 93.3952 148.805 93.1618 149.038ZM100.485 152.062C100.793 152.062 101.064 152.057 101.297 152.048C101.54 152.029 101.741 152.001 101.899 151.964V149.794C101.806 149.747 101.652 149.71 101.437 149.682C101.232 149.645 100.98 149.626 100.681 149.626C100.485 149.626 100.275 149.64 100.051 149.668C99.8367 149.696 99.636 149.757 99.4494 149.85C99.272 149.934 99.1227 150.055 99.0014 150.214C98.88 150.363 98.8194 150.564 98.8194 150.816C98.8194 151.283 98.9687 151.609 99.2674 151.796C99.566 151.973 99.972 152.062 100.485 152.062ZM100.373 145.538C100.896 145.538 101.335 145.608 101.689 145.748C102.053 145.879 102.343 146.07 102.557 146.322C102.781 146.565 102.94 146.859 103.033 147.204C103.127 147.54 103.173 147.913 103.173 148.324V152.874C103.061 152.893 102.903 152.921 102.697 152.958C102.501 152.986 102.277 153.014 102.025 153.042C101.773 153.07 101.498 153.093 101.199 153.112C100.91 153.14 100.621 153.154 100.331 153.154C99.9207 153.154 99.5427 153.112 99.1974 153.028C98.852 152.944 98.5534 152.813 98.3014 152.636C98.0494 152.449 97.8534 152.207 97.7134 151.908C97.5734 151.609 97.5034 151.25 97.5034 150.83C97.5034 150.429 97.5827 150.083 97.7414 149.794C97.9094 149.505 98.1334 149.271 98.4134 149.094C98.6934 148.917 99.02 148.786 99.3934 148.702C99.7667 148.618 100.159 148.576 100.569 148.576C100.7 148.576 100.835 148.585 100.975 148.604C101.115 148.613 101.246 148.632 101.367 148.66C101.498 148.679 101.61 148.697 101.703 148.716C101.797 148.735 101.862 148.749 101.899 148.758V148.394C101.899 148.179 101.876 147.969 101.829 147.764C101.783 147.549 101.699 147.363 101.577 147.204C101.456 147.036 101.288 146.905 101.073 146.812C100.868 146.709 100.597 146.658 100.261 146.658C99.832 146.658 99.454 146.691 99.1274 146.756C98.81 146.812 98.572 146.873 98.4134 146.938L98.2594 145.86C98.4274 145.785 98.7074 145.715 99.0994 145.65C99.4914 145.575 99.916 145.538 100.373 145.538ZM107.184 145.538C107.604 145.538 107.996 145.58 108.36 145.664C108.724 145.748 109.036 145.874 109.298 146.042C109.559 146.21 109.764 146.42 109.914 146.672C110.063 146.924 110.138 147.218 110.138 147.554C110.138 147.769 110.1 147.965 110.026 148.142C109.951 148.319 109.858 148.478 109.746 148.618C109.634 148.758 109.508 148.879 109.368 148.982C109.237 149.075 109.111 149.141 108.99 149.178C109.419 149.309 109.755 149.542 109.998 149.878C110.25 150.205 110.376 150.62 110.376 151.124C110.376 151.815 110.096 152.328 109.536 152.664C108.976 153 108.215 153.168 107.254 153.168C106.666 153.168 106.157 153.121 105.728 153.028C105.308 152.935 105.009 152.846 104.832 152.762L105.056 151.656C105.205 151.712 105.471 151.791 105.854 151.894C106.246 151.987 106.712 152.034 107.254 152.034C107.842 152.034 108.29 151.945 108.598 151.768C108.906 151.581 109.06 151.306 109.06 150.942C109.06 150.681 108.999 150.471 108.878 150.312C108.766 150.144 108.621 150.018 108.444 149.934C108.266 149.85 108.075 149.794 107.87 149.766C107.664 149.738 107.473 149.724 107.296 149.724H106.078V148.688H107.254C107.422 148.688 107.594 148.679 107.772 148.66C107.958 148.632 108.126 148.581 108.276 148.506C108.434 148.431 108.565 148.329 108.668 148.198C108.77 148.058 108.822 147.876 108.822 147.652C108.822 147.475 108.775 147.325 108.682 147.204C108.598 147.073 108.481 146.966 108.332 146.882C108.182 146.798 108.005 146.737 107.8 146.7C107.604 146.653 107.398 146.63 107.184 146.63C107.016 146.63 106.834 146.644 106.638 146.672C106.442 146.7 106.25 146.737 106.064 146.784C105.877 146.821 105.709 146.863 105.56 146.91C105.41 146.957 105.303 146.999 105.238 147.036L105 145.916C105.074 145.888 105.191 145.851 105.35 145.804C105.508 145.757 105.686 145.715 105.882 145.678C106.087 145.641 106.302 145.608 106.526 145.58C106.75 145.552 106.969 145.538 107.184 145.538ZM114.859 149.402C114.607 149.402 114.36 149.411 114.117 149.43C113.884 149.439 113.674 149.467 113.487 149.514V152.02C113.543 152.029 113.623 152.039 113.725 152.048C113.837 152.057 113.954 152.067 114.075 152.076C114.206 152.076 114.337 152.081 114.467 152.09C114.598 152.09 114.715 152.09 114.817 152.09C115.387 152.09 115.825 151.983 116.133 151.768C116.441 151.553 116.595 151.208 116.595 150.732C116.595 150.499 116.544 150.298 116.441 150.13C116.348 149.962 116.217 149.827 116.049 149.724C115.891 149.612 115.709 149.533 115.503 149.486C115.298 149.43 115.083 149.402 114.859 149.402ZM112.185 145.72H113.487V148.506C113.646 148.469 113.875 148.431 114.173 148.394C114.481 148.357 114.775 148.338 115.055 148.338C115.438 148.338 115.802 148.385 116.147 148.478C116.493 148.562 116.796 148.702 117.057 148.898C117.319 149.085 117.524 149.332 117.673 149.64C117.832 149.939 117.911 150.298 117.911 150.718C117.911 151.157 117.837 151.53 117.687 151.838C117.538 152.146 117.328 152.398 117.057 152.594C116.787 152.79 116.46 152.93 116.077 153.014C115.695 153.107 115.275 153.154 114.817 153.154C114.379 153.154 113.935 153.126 113.487 153.07C113.039 153.023 112.605 152.949 112.185 152.846V145.72ZM120.557 153H119.255V145.72H120.557V153ZM124.069 152.02C124.125 152.029 124.204 152.039 124.307 152.048C124.409 152.057 124.526 152.067 124.657 152.076C124.787 152.076 124.923 152.081 125.063 152.09C125.212 152.09 125.352 152.09 125.483 152.09C125.753 152.09 126.01 152.071 126.253 152.034C126.505 151.997 126.719 151.931 126.897 151.838C127.083 151.745 127.228 151.623 127.331 151.474C127.443 151.315 127.499 151.115 127.499 150.872C127.499 150.639 127.447 150.447 127.345 150.298C127.251 150.139 127.121 150.013 126.953 149.92C126.785 149.827 126.584 149.761 126.351 149.724C126.127 149.687 125.884 149.668 125.623 149.668H124.069V152.02ZM125.455 148.702C125.707 148.702 125.935 148.688 126.141 148.66C126.355 148.623 126.537 148.562 126.687 148.478C126.845 148.394 126.967 148.282 127.051 148.142C127.144 148.002 127.191 147.825 127.191 147.61C127.191 147.386 127.135 147.209 127.023 147.078C126.911 146.947 126.761 146.849 126.575 146.784C126.397 146.709 126.192 146.663 125.959 146.644C125.735 146.616 125.506 146.602 125.273 146.602C125.058 146.602 124.839 146.607 124.615 146.616C124.4 146.625 124.218 146.635 124.069 146.644V148.702H125.455ZM125.427 153.126C124.876 153.126 124.367 153.098 123.901 153.042C123.434 152.995 123.065 152.939 122.795 152.874V145.79C123.065 145.725 123.434 145.669 123.901 145.622C124.367 145.566 124.876 145.538 125.427 145.538C125.809 145.538 126.183 145.571 126.547 145.636C126.911 145.701 127.233 145.813 127.513 145.972C127.793 146.121 128.017 146.331 128.185 146.602C128.362 146.863 128.451 147.19 128.451 147.582C128.451 147.937 128.362 148.24 128.185 148.492C128.007 148.744 127.769 148.94 127.471 149.08C127.872 149.22 128.189 149.43 128.423 149.71C128.665 149.981 128.787 150.363 128.787 150.858C128.787 151.297 128.698 151.661 128.521 151.95C128.353 152.239 128.115 152.473 127.807 152.65C127.508 152.827 127.153 152.949 126.743 153.014C126.332 153.089 125.893 153.126 125.427 153.126ZM132.929 152.062C133.237 152.062 133.507 152.057 133.741 152.048C133.983 152.029 134.184 152.001 134.343 151.964V149.794C134.249 149.747 134.095 149.71 133.881 149.682C133.675 149.645 133.423 149.626 133.125 149.626C132.929 149.626 132.719 149.64 132.495 149.668C132.28 149.696 132.079 149.757 131.893 149.85C131.715 149.934 131.566 150.055 131.445 150.214C131.323 150.363 131.263 150.564 131.263 150.816C131.263 151.283 131.412 151.609 131.711 151.796C132.009 151.973 132.415 152.062 132.929 152.062ZM132.817 145.538C133.339 145.538 133.778 145.608 134.133 145.748C134.497 145.879 134.786 146.07 135.001 146.322C135.225 146.565 135.383 146.859 135.477 147.204C135.57 147.54 135.617 147.913 135.617 148.324V152.874C135.505 152.893 135.346 152.921 135.141 152.958C134.945 152.986 134.721 153.014 134.469 153.042C134.217 153.07 133.941 153.093 133.643 153.112C133.353 153.14 133.064 153.154 132.775 153.154C132.364 153.154 131.986 153.112 131.641 153.028C131.295 152.944 130.997 152.813 130.745 152.636C130.493 152.449 130.297 152.207 130.157 151.908C130.017 151.609 129.947 151.25 129.947 150.83C129.947 150.429 130.026 150.083 130.185 149.794C130.353 149.505 130.577 149.271 130.857 149.094C131.137 148.917 131.463 148.786 131.837 148.702C132.21 148.618 132.602 148.576 133.013 148.576C133.143 148.576 133.279 148.585 133.419 148.604C133.559 148.613 133.689 148.632 133.811 148.66C133.941 148.679 134.053 148.697 134.147 148.716C134.24 148.735 134.305 148.749 134.343 148.758V148.394C134.343 148.179 134.319 147.969 134.273 147.764C134.226 147.549 134.142 147.363 134.021 147.204C133.899 147.036 133.731 146.905 133.517 146.812C133.311 146.709 133.041 146.658 132.705 146.658C132.275 146.658 131.897 146.691 131.571 146.756C131.253 146.812 131.015 146.873 130.857 146.938L130.703 145.86C130.871 145.785 131.151 145.715 131.543 145.65C131.935 145.575 132.359 145.538 132.817 145.538ZM139.081 148.73H140.677C140.733 148.245 140.855 147.806 141.041 147.414C141.237 147.022 141.48 146.686 141.769 146.406C142.059 146.126 142.39 145.911 142.763 145.762C143.137 145.613 143.538 145.538 143.967 145.538C144.443 145.538 144.882 145.631 145.283 145.818C145.694 145.995 146.049 146.252 146.347 146.588C146.646 146.924 146.879 147.33 147.047 147.806C147.215 148.273 147.299 148.791 147.299 149.36C147.299 149.939 147.215 150.461 147.047 150.928C146.879 151.395 146.646 151.796 146.347 152.132C146.049 152.468 145.694 152.729 145.283 152.916C144.882 153.093 144.443 153.182 143.967 153.182C143.519 153.182 143.099 153.103 142.707 152.944C142.325 152.776 141.989 152.547 141.699 152.258C141.41 151.959 141.172 151.6 140.985 151.18C140.808 150.76 140.701 150.293 140.663 149.78H139.081V153H137.779V145.72H139.081V148.73ZM145.955 149.36C145.955 148.539 145.773 147.89 145.409 147.414C145.055 146.929 144.574 146.686 143.967 146.686C143.361 146.686 142.875 146.929 142.511 147.414C142.157 147.89 141.979 148.539 141.979 149.36C141.979 150.181 142.157 150.835 142.511 151.32C142.875 151.796 143.361 152.034 143.967 152.034C144.574 152.034 145.055 151.796 145.409 151.32C145.773 150.835 145.955 150.181 145.955 149.36ZM154.265 145.72V146.812H151.899V153H150.597V146.812H148.231V145.72H154.265ZM47.7188 171H46.4168V167.78H43.0568V171H41.7548V163.72H43.0568V166.688H46.4168V163.72H47.7188V171ZM52.4219 170.062C52.7299 170.062 53.0006 170.057 53.2339 170.048C53.4766 170.029 53.6772 170.001 53.8359 169.964V167.794C53.7426 167.747 53.5886 167.71 53.3739 167.682C53.1686 167.645 52.9166 167.626 52.6179 167.626C52.4219 167.626 52.2119 167.64 51.9879 167.668C51.7732 167.696 51.5726 167.757 51.3859 167.85C51.2086 167.934 51.0592 168.055 50.9379 168.214C50.8166 168.363 50.7559 168.564 50.7559 168.816C50.7559 169.283 50.9052 169.609 51.2039 169.796C51.5026 169.973 51.9086 170.062 52.4219 170.062ZM52.3099 163.538C52.8326 163.538 53.2712 163.608 53.6259 163.748C53.9899 163.879 54.2792 164.07 54.4939 164.322C54.7179 164.565 54.8766 164.859 54.9699 165.204C55.0632 165.54 55.1099 165.913 55.1099 166.324V170.874C54.9979 170.893 54.8392 170.921 54.6339 170.958C54.4379 170.986 54.2139 171.014 53.9619 171.042C53.7099 171.07 53.4346 171.093 53.1359 171.112C52.8466 171.14 52.5572 171.154 52.2679 171.154C51.8572 171.154 51.4792 171.112 51.1339 171.028C50.7886 170.944 50.4899 170.813 50.2379 170.636C49.9859 170.449 49.7899 170.207 49.6499 169.908C49.5099 169.609 49.4399 169.25 49.4399 168.83C49.4399 168.429 49.5192 168.083 49.6779 167.794C49.8459 167.505 50.0699 167.271 50.3499 167.094C50.6299 166.917 50.9566 166.786 51.3299 166.702C51.7032 166.618 52.0952 166.576 52.5059 166.576C52.6366 166.576 52.7719 166.585 52.9119 166.604C53.0519 166.613 53.1826 166.632 53.3039 166.66C53.4346 166.679 53.5466 166.697 53.6399 166.716C53.7332 166.735 53.7986 166.749 53.8359 166.758V166.394C53.8359 166.179 53.8126 165.969 53.7659 165.764C53.7192 165.549 53.6352 165.363 53.5139 165.204C53.3926 165.036 53.2246 164.905 53.0099 164.812C52.8046 164.709 52.5339 164.658 52.1979 164.658C51.7686 164.658 51.3906 164.691 51.0639 164.756C50.7466 164.812 50.5086 164.873 50.3499 164.938L50.1959 163.86C50.3639 163.785 50.6439 163.715 51.0359 163.65C51.4279 163.575 51.8526 163.538 52.3099 163.538ZM57.2723 171V163.72H58.5743V169.922H61.2623V163.72H62.5643V169.922H65.2523V163.72H66.5543V171H57.2723ZM74.9157 163.72V171H73.6557V165.456C73.3757 165.811 73.0677 166.226 72.7317 166.702C72.3957 167.178 72.0597 167.673 71.7237 168.186C71.3877 168.69 71.0657 169.189 70.7577 169.684C70.4497 170.179 70.1837 170.617 69.9597 171H68.7977V163.72H70.0577V168.956C70.3004 168.555 70.5757 168.116 70.8837 167.64C71.1917 167.155 71.5091 166.679 71.8357 166.212C72.1717 165.736 72.5031 165.283 72.8297 164.854C73.1657 164.415 73.4784 164.037 73.7677 163.72H74.9157ZM79.5375 172.358C79.6402 172.405 79.7708 172.447 79.9295 172.484C80.0975 172.531 80.2608 172.554 80.4195 172.554C80.9328 172.554 81.3342 172.437 81.6235 172.204C81.9128 171.98 82.1742 171.611 82.4075 171.098C81.8195 169.978 81.2688 168.793 80.7555 167.542C80.2515 166.282 79.8315 165.008 79.4955 163.72H80.8955C80.9982 164.14 81.1195 164.593 81.2595 165.078C81.4088 165.563 81.5722 166.063 81.7495 166.576C81.9268 167.089 82.1182 167.603 82.3235 168.116C82.5288 168.629 82.7435 169.124 82.9675 169.6C83.3222 168.62 83.6302 167.649 83.8915 166.688C84.1528 165.727 84.4002 164.737 84.6335 163.72H85.9775C85.6415 165.092 85.2682 166.413 84.8575 167.682C84.4468 168.942 84.0035 170.123 83.5275 171.224C83.3408 171.644 83.1448 172.003 82.9395 172.302C82.7435 172.61 82.5242 172.862 82.2815 173.058C82.0388 173.254 81.7635 173.399 81.4555 173.492C81.1568 173.585 80.8162 173.632 80.4335 173.632C80.3308 173.632 80.2235 173.623 80.1115 173.604C79.9995 173.595 79.8875 173.576 79.7755 173.548C79.6728 173.529 79.5748 173.506 79.4815 173.478C79.3975 173.45 79.3368 173.427 79.2995 173.408L79.5375 172.358ZM90.3504 171.168C89.7624 171.168 89.2444 171.075 88.7964 170.888C88.3577 170.701 87.9844 170.44 87.6764 170.104C87.3777 169.768 87.1537 169.371 87.0044 168.914C86.8551 168.447 86.7804 167.934 86.7804 167.374C86.7804 166.814 86.8597 166.301 87.0184 165.834C87.1864 165.367 87.4197 164.966 87.7184 164.63C88.0171 164.285 88.3811 164.019 88.8104 163.832C89.2491 163.636 89.7344 163.538 90.2664 163.538C90.5931 163.538 90.9197 163.566 91.2464 163.622C91.5731 163.678 91.8857 163.767 92.1844 163.888L91.8904 164.994C91.6944 164.901 91.4657 164.826 91.2044 164.77C90.9524 164.714 90.6817 164.686 90.3924 164.686C89.6644 164.686 89.1044 164.915 88.7124 165.372C88.3297 165.829 88.1384 166.497 88.1384 167.374C88.1384 167.766 88.1804 168.125 88.2644 168.452C88.3577 168.779 88.4977 169.059 88.6844 169.292C88.8804 169.525 89.1277 169.707 89.4264 169.838C89.7251 169.959 90.0891 170.02 90.5184 170.02C90.8637 170.02 91.1764 169.987 91.4564 169.922C91.7364 169.857 91.9557 169.787 92.1144 169.712L92.2964 170.804C92.2217 170.851 92.1144 170.897 91.9744 170.944C91.8344 170.981 91.6757 171.014 91.4984 171.042C91.3211 171.079 91.1297 171.107 90.9244 171.126C90.7284 171.154 90.5371 171.168 90.3504 171.168ZM96.488 164.812C96.488 165.12 96.4787 165.451 96.46 165.806C96.4507 166.151 96.4273 166.501 96.39 166.856C96.3527 167.201 96.3013 167.547 96.236 167.892C96.1707 168.228 96.0867 168.545 95.984 168.844C95.8813 169.143 95.7507 169.423 95.592 169.684C95.4427 169.945 95.256 170.179 95.032 170.384C94.808 170.58 94.5467 170.748 94.248 170.888C93.9493 171.019 93.5993 171.103 93.198 171.14L93.016 170.048C93.4733 169.955 93.8327 169.782 94.094 169.53C94.3647 169.278 94.5793 168.97 94.738 168.606C94.878 168.289 94.9807 167.929 95.046 167.528C95.1113 167.127 95.158 166.711 95.186 166.282C95.214 165.843 95.228 165.405 95.228 164.966C95.2373 164.527 95.242 164.112 95.242 163.72H100.086V171H98.784V164.812H96.488ZM101.467 172.358C101.57 172.405 101.701 172.447 101.859 172.484C102.027 172.531 102.191 172.554 102.349 172.554C102.863 172.554 103.264 172.437 103.553 172.204C103.843 171.98 104.104 171.611 104.337 171.098C103.749 169.978 103.199 168.793 102.685 167.542C102.181 166.282 101.761 165.008 101.425 163.72H102.825C102.928 164.14 103.049 164.593 103.189 165.078C103.339 165.563 103.502 166.063 103.679 166.576C103.857 167.089 104.048 167.603 104.253 168.116C104.459 168.629 104.673 169.124 104.897 169.6C105.252 168.62 105.56 167.649 105.821 166.688C106.083 165.727 106.33 164.737 106.563 163.72H107.907C107.571 165.092 107.198 166.413 106.787 167.682C106.377 168.942 105.933 170.123 105.457 171.224C105.271 171.644 105.075 172.003 104.869 172.302C104.673 172.61 104.454 172.862 104.211 173.058C103.969 173.254 103.693 173.399 103.385 173.492C103.087 173.585 102.746 173.632 102.363 173.632C102.261 173.632 102.153 173.623 102.041 173.604C101.929 173.595 101.817 173.576 101.705 173.548C101.603 173.529 101.505 173.506 101.411 173.478C101.327 173.45 101.267 173.427 101.229 173.408L101.467 172.358ZM113.788 164.812H110.582V171H109.28V163.72H113.788V164.812ZM121.25 163.72V171H119.99V165.456C119.71 165.811 119.402 166.226 119.066 166.702C118.73 167.178 118.394 167.673 118.058 168.186C117.722 168.69 117.4 169.189 117.092 169.684C116.784 170.179 116.518 170.617 116.294 171H115.132V163.72H116.392V168.956C116.634 168.555 116.91 168.116 117.218 167.64C117.526 167.155 117.843 166.679 118.17 166.212C118.506 165.736 118.837 165.283 119.164 164.854C119.5 164.415 119.812 164.037 120.102 163.72H121.25Z" fill="#1A1A1A"/>
<defs>
<linearGradient id="paint0_linear_175_2300" x1="120.327" y1="130" x2="27.1726" y2="122.293" gradientUnits="userSpaceOnUse">
<stop stop-color="#9166F0"/>
<stop offset="1" stop-color="#210C51"/>
</linearGradient>
<linearGradient id="paint1_linear_175_2300" x1="156.308" y1="61" x2="132.762" y2="59.362" gradientUnits="userSpaceOnUse">
<stop stop-color="#9166F0"/>
<stop offset="1" stop-color="#210C51"/>
</linearGradient>
</defs>
</svg>
