<svg width="54" height="54" viewBox="0 0 54 54" fill="none" xmlns="http://www.w3.org/2000/svg">
<rect x="-0.00012207" width="54" height="54" rx="5" fill="#9166F0"/>
<path fill-rule="evenodd" clip-rule="evenodd" d="M13.4555 13.4556C14.063 12.8481 15.0479 12.8481 15.6554 13.4556L40.5442 38.3446C41.1517 38.9521 41.1517 39.9368 40.5442 40.5443C39.9367 41.1518 38.9519 41.1518 38.3444 40.5443L13.4555 15.6555C12.848 15.048 12.848 14.0631 13.4555 13.4556Z" fill="white"/>
<path fill-rule="evenodd" clip-rule="evenodd" d="M39.4443 17.6667C40.3034 17.6667 40.9998 18.3632 40.9998 19.2223V39.4445C40.9998 40.3036 40.3034 41.0001 39.4443 41.0001H19.2221C18.363 41.0001 17.6665 40.3036 17.6665 39.4445C17.6665 38.5854 18.363 37.889 19.2221 37.889H37.8887V19.2223C37.8887 18.3632 38.5852 17.6667 39.4443 17.6667Z" fill="white"/>
</svg>
