<svg width="26" height="23" viewBox="0 0 26 23" fill="none" xmlns="http://www.w3.org/2000/svg">
<path d="M10.67 6.55C10.67 8.43 10.19 9.87 9.23 10.87C8.27 11.87 6.98 12.37 5.36 12.37C3.74 12.37 2.45 11.87 1.49 10.87C0.53 9.87 0.05 8.43 0.05 6.55C0.05 4.67 0.53 3.23 1.49 2.23C2.45 1.23 3.74 0.729998 5.36 0.729998C6.98 0.729998 8.27 1.23 9.23 2.23C10.19 3.23 10.67 4.67 10.67 6.55ZM7.28 6.55C7.28 5.53 7.1 4.79 6.74 4.33C6.38 3.87 5.92 3.64 5.36 3.64C4.78 3.64 4.31 3.87 3.95 4.33C3.61 4.79 3.44 5.53 3.44 6.55C3.44 7.57 3.61 8.32 3.95 8.8C4.31 9.26 4.78 9.49 5.36 9.49C5.92 9.49 6.38 9.26 6.74 8.8C7.1 8.32 7.28 7.57 7.28 6.55ZM16.52 1.21H20.69L8.96 22H4.79L16.52 1.21ZM25.49 16.66C25.49 18.54 25.01 19.98 24.05 20.98C23.09 21.98 21.8 22.48 20.18 22.48C18.56 22.48 17.27 21.98 16.31 20.98C15.35 19.98 14.87 18.54 14.87 16.66C14.87 14.78 15.35 13.34 16.31 12.34C17.27 11.34 18.56 10.84 20.18 10.84C21.8 10.84 23.09 11.34 24.05 12.34C25.01 13.34 25.49 14.78 25.49 16.66ZM22.1 16.66C22.1 15.64 21.92 14.9 21.56 14.44C21.2 13.98 20.74 13.75 20.18 13.75C19.6 13.75 19.13 13.98 18.77 14.44C18.43 14.9 18.26 15.64 18.26 16.66C18.26 17.68 18.43 18.43 18.77 18.91C19.13 19.37 19.6 19.6 20.18 19.6C20.74 19.6 21.2 19.37 21.56 18.91C21.92 18.43 22.1 17.68 22.1 16.66Z" fill="url(#paint0_linear_175_2302)"/>
<defs>
<linearGradient id="paint0_linear_175_2302" x1="24.3077" y1="30" x2="0.762414" y2="28.362" gradientUnits="userSpaceOnUse">
<stop stop-color="#9166F0"/>
<stop offset="1" stop-color="#210C51"/>
</linearGradient>
</defs>
</svg>
